# xmcd CD database file
#
# Track frame offsets:
#	150
#	23471
#	59340
#	83937
#	108997
#	142816
#	163211
#	183751
#	214986
#	243900
#	270922
#	300983
#
# Disc length: 4407 seconds
#
# Revision: 0
# Processed by: cddbd v1.5.2PL0 Copyright (c) Steve Scherf et al.
# Submitted via: CDex 1.51
#
DISCID=9111350c
DTITLE=Carla Olson and Mick Taylor - Too Hot For Snakes Plus CD 1
DYEAR=2008
DGENRE=Blues
TTITLE0=Who Put The Sting On The Honeybee 
TTITLE1=Slow Rollin`Train
TTITLE2=Trying To Hold On
TTITLE3=Rubies and Diamonds
TTITLE4=See The Light
TTITLE5=You Can`t Move In
TTITLE6=Broken Hands
TTITLE7=Sway
TTITLE8=Hartley Quits
TTITLE9=Midnight Mission
TTITLE10=Silver Train
TTITLE11=You Gotta Move
EXTD=YEAR: 2008
EXTT0=
EXTT1=
EXTT2=
EXTT3=
EXTT4=
EXTT5=
EXTT6=
EXTT7=
EXTT8=
EXTT9=
EXTT10=
EXTT11=
PLAYORDER=
